<svg width="40" height="40" viewBox="0 0 40 40" fill="none" xmlns="http://www.w3.org/2000/svg">
<rect width="40" height="40" rx="8" fill="#4F46E5"/>
<path d="M12 28V26H14.75L14.35 25.65C13.5333 24.8333 12.9375 23.9458 12.5625 22.9875C12.1875 22.0292 12 21.05 12 20.05C12 18.2 12.5542 16.5542 13.6625 15.1125C14.7708 13.6708 16.2167 12.7167 18 12.25V14.35C16.8 14.7833 15.8333 15.5208 15.1 16.5625C14.3667 17.6042 14 18.7667 14 20.05C14 20.8 14.1417 21.5292 14.425 22.2375C14.7083 22.9458 15.15 23.6 15.75 24.2L16 24.45V22H18V28H12ZM22 27.75V25.65C23.2 25.2167 24.1667 24.4792 24.9 23.4375C25.6333 22.3958 26 21.2333 26 19.95C26 19.2 25.8583 18.4708 25.575 17.7625C25.2917 17.0542 24.85 16.4 24.25 15.8L24 15.55V18H22V12H28V14H25.25L25.65 14.35C26.4667 15.1667 27.0625 16.0542 27.4375 17.0125C27.8125 17.9708 28 18.95 28 19.95C28 21.8 27.4458 23.4458 26.3375 24.8875C25.2292 26.3292 23.7833 27.2833 22 27.75Z" fill="white"/>
</svg>
