<svg width="166" height="40" viewBox="0 0 166 40" fill="none" xmlns="http://www.w3.org/2000/svg">
<rect width="40" height="40" rx="8" fill="#6366F1"/>
<path d="M12 28V26H14.75L14.35 25.65C13.5333 24.8333 12.9375 23.9458 12.5625 22.9875C12.1875 22.0292 12 21.05 12 20.05C12 18.2 12.5542 16.5542 13.6625 15.1125C14.7708 13.6708 16.2167 12.7167 18 12.25V14.35C16.8 14.7833 15.8333 15.5208 15.1 16.5625C14.3667 17.6042 14 18.7667 14 20.05C14 20.8 14.1417 21.5292 14.425 22.2375C14.7083 22.9458 15.15 23.6 15.75 24.2L16 24.45V22H18V28H12V28M22 27.75V25.65C23.2 25.2167 24.1667 24.4792 24.9 23.4375C25.6333 22.3958 26 21.2333 26 19.95C26 19.2 25.8583 18.4708 25.575 17.7625C25.2917 17.0542 24.85 16.4 24.25 15.8L24 15.55V18H22V12H28V14H25.25L25.65 14.35C26.4667 15.1667 27.0625 16.0542 27.4375 17.0125C27.8125 17.9708 28 18.95 28 19.95C28 21.8 27.4458 23.4458 26.3375 24.8875C25.2292 26.3292 23.7833 27.2833 22 27.75V27.75" fill="white"/>
<path d="M53.755 29V11.5391H64.9337V14.1743H56.8844V19.4169H64.1537V22.0184H56.8844V29H53.755ZM70.7706 11.5391V29H67.7247V11.5391H70.7706ZM79.6923 29.2644C78.4205 29.2644 77.3155 28.9824 76.3773 28.4185C75.4392 27.8546 74.7138 27.0655 74.2012 26.0513C73.6885 25.0371 73.4322 23.8581 73.4322 22.5144C73.4322 21.1556 73.6885 19.9679 74.2012 18.9512C74.7138 17.9345 75.4392 17.1441 76.3773 16.5802C77.3155 16.0163 78.4205 15.7344 79.6923 15.7344C80.9692 15.7344 82.0766 16.0163 83.0144 16.5802C83.9522 17.1441 84.6774 17.9345 85.1901 18.9512C85.7027 19.9679 85.959 21.1556 85.959 22.5144C85.959 23.8581 85.7027 25.0371 85.1901 26.0513C84.6774 27.0655 83.9522 27.8546 83.0144 28.4185C82.0766 28.9824 80.9692 29.2644 79.6923 29.2644ZM79.6923 26.7913C80.4036 26.7913 80.9945 26.5999 81.4649 26.2171C81.9354 25.8342 82.2863 25.3187 82.5175 24.6704C82.7488 24.0221 82.8644 23.3006 82.8644 22.5059C82.8644 21.7034 82.7488 20.9777 82.5175 20.3286C82.2863 19.6795 81.9354 19.1637 81.4649 18.7812C80.9945 18.3987 80.4036 18.2075 79.6923 18.2075C78.9833 18.2075 78.3953 18.3987 77.9284 18.7812C77.4615 19.1637 77.1125 19.6783 76.8812 20.3248C76.65 20.9714 76.5343 21.6984 76.5343 22.5059C76.5343 23.3006 76.65 24.0221 76.8812 24.6704C77.1125 25.3187 77.4615 25.8342 77.9284 26.2171C78.3953 26.5999 78.9833 26.7913 79.6923 26.7913ZM91.0581 29L87.1572 15.8984H90.3615L91.6515 21.035C91.8534 21.8725 92.0716 22.796 92.3062 23.8053C92.5407 24.8147 92.7622 25.9388 92.9706 27.1775H92.582C92.7967 25.9738 93.0251 24.8653 93.2673 23.852C93.5095 22.8387 93.7383 21.8997 93.9536 21.035L95.275 15.8984H98.1831L99.4726 21.035C99.6801 21.8875 99.9044 22.8185 100.146 23.8278C100.387 24.8372 100.615 25.9538 100.829 27.1775H100.442C100.652 25.9638 100.87 24.8522 101.095 23.8428C101.32 22.8335 101.536 21.8975 101.743 21.035L103.033 15.8984H106.271L102.353 29H99.2725L97.7378 23.6525C97.5856 23.1184 97.4352 22.5424 97.2866 21.9244C97.138 21.3065 96.9934 20.6757 96.8526 20.0321C96.7118 19.3885 96.5678 18.769 96.4206 18.1737H96.9906C96.8512 18.764 96.7092 19.3822 96.5645 20.0283C96.4198 20.6744 96.2739 21.309 96.1267 21.9319C95.9795 22.5549 95.8284 23.1284 95.6734 23.6525L94.1387 29H91.0581ZM114.674 29.2709C113.324 29.2709 112.149 29.0601 111.15 28.6384C110.151 28.2166 109.372 27.6033 108.812 26.7983C108.252 25.9933 107.948 25.0153 107.9 23.8644H110.982C111.034 24.4756 111.225 24.9836 111.555 25.3883C111.886 25.793 112.321 26.0953 112.859 26.2953C113.398 26.4953 113.995 26.5953 114.649 26.5953C115.337 26.5953 115.944 26.4903 116.47 26.2803C116.996 26.0703 117.409 25.7753 117.707 25.3951C118.005 25.0149 118.154 24.5753 118.154 24.0763C118.154 23.6206 118.023 23.2445 117.76 22.9477C117.497 22.651 117.129 22.4006 116.656 22.1966C116.183 21.9925 115.63 21.8116 114.997 21.6537L113.014 21.1362C111.56 20.7631 110.423 20.1963 109.604 19.4358C108.785 18.6754 108.375 17.679 108.375 16.4469C108.375 15.4175 108.653 14.5168 109.21 13.7448C109.767 12.9727 110.525 12.373 111.486 11.9457C112.448 11.5184 113.537 11.3047 114.755 11.3047C115.999 11.3047 117.088 11.5198 118.023 11.9499C118.958 12.3801 119.69 12.9729 120.218 13.7284C120.747 14.4838 121.023 15.3494 121.045 16.325H118.014C117.935 15.5747 117.599 14.9938 117.008 14.5824C116.416 14.171 115.65 13.9653 114.71 13.9653C114.055 13.9653 113.491 14.0644 113.016 14.2627C112.541 14.461 112.177 14.7329 111.923 15.0786C111.67 15.4242 111.543 15.8184 111.543 16.2612C111.543 16.7497 111.693 17.1499 111.993 17.462C112.293 17.774 112.672 18.0237 113.13 18.211C113.588 18.3984 114.05 18.5506 114.517 18.6678L116.149 19.085C116.795 19.2381 117.423 19.4452 118.035 19.7061C118.646 19.967 119.196 20.2946 119.685 20.6888C120.174 21.0831 120.562 21.5602 120.849 22.1202C121.136 22.6802 121.28 23.3397 121.28 24.0988C121.28 25.1222 121.019 26.023 120.498 26.8013C119.976 27.5796 119.223 28.1858 118.239 28.6198C117.254 29.0539 116.066 29.2709 114.674 29.2709ZM123.879 33.6744L124.595 31.2978L124.957 31.3944C125.418 31.5122 125.828 31.5443 126.188 31.4907C126.548 31.4371 126.849 31.2802 127.091 31.0199C127.333 30.7596 127.504 30.3802 127.606 29.8817L127.799 29.0492L122.85 15.8984H126.108L128.505 23.0225C128.785 23.866 129.014 24.7065 129.194 25.5442C129.373 26.3818 129.571 27.2375 129.79 28.1113H128.987C129.205 27.2375 129.418 26.3792 129.626 25.5362C129.835 24.6932 130.081 23.8553 130.364 23.0225L132.839 15.8984H136.064L130.437 30.6828C130.171 31.3838 129.838 31.9813 129.437 32.4756C129.037 32.9698 128.549 33.3461 127.974 33.6045C127.399 33.863 126.715 33.9922 125.924 33.9922C125.49 33.9922 125.091 33.9606 124.727 33.8975C124.364 33.8344 124.081 33.76 123.879 33.6744ZM141.177 21.3256V29H138.131V15.8984H141.019L141.06 19.1375H140.822C141.184 18.0053 141.721 17.1551 142.434 16.5868C143.147 16.0185 144.038 15.7344 145.106 15.7344C146.006 15.7344 146.791 15.9266 147.462 16.3109C148.133 16.6953 148.655 17.2548 149.027 17.9895C149.4 18.7242 149.586 19.6181 149.586 20.6713V29H146.54V21.1381C146.54 20.2597 146.313 19.5712 145.857 19.0726C145.401 18.574 144.774 18.3247 143.975 18.3247C143.437 18.3247 142.957 18.4424 142.535 18.6779C142.112 18.9133 141.78 19.2541 141.539 19.7002C141.297 20.1463 141.177 20.6881 141.177 21.3256ZM158.497 29.2644C157.225 29.2644 156.121 28.9824 155.184 28.4185C154.247 27.8546 153.522 27.0655 153.01 26.0513C152.497 25.0371 152.241 23.8581 152.241 22.5144C152.241 21.1556 152.497 19.9679 153.01 18.9512C153.522 17.9345 154.247 17.1441 155.184 16.5802C156.121 16.0163 157.225 15.7344 158.497 15.7344C159.228 15.7344 159.906 15.8291 160.53 16.0184C161.155 16.2078 161.713 16.4793 162.206 16.8329C162.699 17.1865 163.111 17.6174 163.441 18.1257C163.771 18.634 164.008 19.207 164.151 19.8448L161.297 20.4444C161.217 20.1056 161.096 19.7991 160.933 19.5249C160.77 19.2507 160.572 19.015 160.338 18.8178C160.104 18.6206 159.835 18.4696 159.531 18.3647C159.226 18.2599 158.89 18.2075 158.522 18.2075C157.813 18.2075 157.224 18.3959 156.754 18.7728C156.284 19.1497 155.932 19.6614 155.696 20.308C155.461 20.9545 155.343 21.6872 155.343 22.5059C155.343 23.3119 155.461 24.0383 155.696 24.6852C155.932 25.332 156.284 25.8448 156.754 26.2234C157.224 26.602 157.813 26.7913 158.522 26.7913C158.895 26.7913 159.236 26.7369 159.546 26.6281C159.855 26.5194 160.13 26.3632 160.37 26.1596C160.61 25.956 160.812 25.71 160.975 25.4216C161.138 25.1331 161.258 24.8131 161.335 24.4616L164.181 25.0569C164.043 25.7131 163.808 26.2993 163.475 26.8154C163.142 27.3315 162.729 27.7727 162.235 28.1391C161.74 28.5056 161.178 28.7847 160.547 28.9766C159.916 29.1684 159.233 29.2644 158.497 29.2644Z" fill="#E2E8F0"/>
</svg>
